<svg width="200" height="200" viewBox="0 0 200 200" fill="none" xmlns="http://www.w3.org/2000/svg">
<path d="M166.262 25L154.213 159.984L100.05 175L46.0367 160.005L34 25H166.262Z" fill="#3C3C3C"/>
<path d="M143.897 151.389L154.194 36.0391H100.131V163.523L143.897 151.389Z" fill="#595959"/>
<path d="M61.5938 86.1094L63.0778 102.667H100.131V86.1094H61.5938Z" fill="#F5F5F5"/>
<path d="M100.132 52.5977H100.074H58.6123L60.1175 69.1557H100.132V52.5977Z" fill="#F5F5F5"/>
<path d="M100.131 146.338V129.111L100.058 129.13L81.6177 124.151L80.4389 110.945H71.4782H63.8174L66.1371 136.944L100.055 146.359L100.131 146.338Z" fill="#F5F5F5"/>
<path d="M120.463 102.669L118.541 124.143L100.074 129.128V146.354L134.019 136.946L134.268 134.149L138.159 90.5575L138.563 86.1112L141.552 52.5977H100.074V69.1557H123.406L121.899 86.1112H100.074V102.669H120.463Z" fill="#F5F5F5"/>
</svg>
