<svg width="200" height="200" viewBox="0 0 200 200" fill="none" xmlns="http://www.w3.org/2000/svg">
<path d="M100.349 99.9994C100.349 86.3331 111.948 75.2539 126.257 75.2539C140.565 75.2539 152.165 86.3331 152.165 99.9994C152.165 113.666 140.565 124.745 126.257 124.745C111.948 124.745 100.349 113.666 100.349 99.9994Z" stroke="#3C3C3C" stroke-width="7"/>
<path d="M48.5332 149.492C48.5332 135.825 60.1326 124.746 74.4412 124.746H100.349V149.492C100.349 163.158 88.7499 174.237 74.4412 174.237C60.1326 174.237 48.5332 163.158 48.5332 149.492Z" stroke="#3C3C3C" stroke-width="7"/>
<path d="M100.349 25.7656V75.2564H126.257C140.565 75.2564 152.165 64.1776 152.165 50.5111C152.165 36.8446 140.565 25.7656 126.257 25.7656H100.349Z" stroke="#3C3C3C" stroke-width="7"/>
<path d="M48.5332 50.5111C48.5332 64.1776 60.1326 75.2565 74.4412 75.2565H100.349V25.7656H74.4412C60.1326 25.7656 48.5332 36.8445 48.5332 50.5111Z" stroke="#3C3C3C" stroke-width="7"/>
<path d="M48.5332 99.9994C48.5332 113.666 60.1326 124.745 74.4412 124.745H100.349V75.2539H74.4412C60.1326 75.2539 48.5332 86.3331 48.5332 99.9994Z" stroke="#3C3C3C" stroke-width="7"/>
</svg>
