<svg width="200" height="200" viewBox="0 0 200 200" fill="none" xmlns="http://www.w3.org/2000/svg">
<mask id="path-1-outside-1_2687_9071" maskUnits="userSpaceOnUse" x="27" y="24" width="148" height="152" fill="black">
<rect fill="white" x="27" y="24" width="148" height="152"/>
<path fill-rule="evenodd" clip-rule="evenodd" d="M173.626 58.9339C173.68 59.1339 173.708 59.3401 173.709 59.5472V91.7443C173.709 92.1576 173.6 92.5635 173.392 92.9211C173.185 93.2787 172.887 93.5753 172.529 93.7809L145.505 109.339V140.178C145.505 141.017 145.059 141.792 144.332 142.214L87.922 174.687C87.7929 174.761 87.6521 174.808 87.5112 174.858C87.4584 174.875 87.4085 174.907 87.3528 174.922C86.9584 175.026 86.5439 175.026 86.1496 174.922C86.0851 174.905 86.0264 174.869 85.9647 174.846C85.8356 174.799 85.7006 174.758 85.5774 174.687L29.1797 142.214C28.8214 142.009 28.5237 141.712 28.3166 141.354C28.1095 140.997 28.0003 140.591 28 140.178V43.5866C28 43.3753 28.0293 43.1699 28.0822 42.9704C28.0998 42.9029 28.1409 42.8413 28.1643 42.7738C28.2083 42.6505 28.2494 42.5243 28.314 42.4099C28.358 42.3336 28.4226 42.272 28.4754 42.2015C28.5429 42.1076 28.6045 42.0108 28.6837 41.9286C28.7512 41.8611 28.8393 41.8112 28.9156 41.7526C29.0007 41.6821 29.077 41.6058 29.1738 41.5501L57.3771 25.3136C57.7341 25.1081 58.1389 25 58.5509 25C58.9628 25 59.3676 25.1081 59.7246 25.3136L87.925 41.5501H87.9309C88.0248 41.6088 88.104 41.6821 88.1891 41.7496C88.2654 41.8083 88.3505 41.8611 88.418 41.9257C88.5001 42.0108 88.5588 42.1076 88.6293 42.2015C88.6791 42.272 88.7466 42.3336 88.7877 42.4099C88.8552 42.5273 88.8934 42.6505 88.9403 42.7738C88.9638 42.8413 89.0049 42.9029 89.0225 42.9733C89.0765 43.1733 89.1041 43.3795 89.1046 43.5866V103.917L112.604 90.3857V59.5443C112.604 59.3389 112.633 59.1305 112.686 58.9339C112.707 58.8635 112.745 58.8019 112.768 58.7344C112.815 58.6111 112.856 58.485 112.921 58.3705C112.965 58.2942 113.029 58.2326 113.079 58.1622C113.15 58.0683 113.208 57.9714 113.291 57.8893C113.358 57.8218 113.443 57.7719 113.52 57.7132C113.608 57.6428 113.684 57.5665 113.778 57.5107L141.984 41.2742C142.341 41.0685 142.746 40.9602 143.158 40.9602C143.57 40.9602 143.975 41.0685 144.332 41.2742L172.532 57.5107C172.632 57.5694 172.708 57.6428 172.796 57.7103C172.869 57.7689 172.954 57.8218 173.022 57.8863C173.104 57.9714 173.163 58.0683 173.233 58.1622C173.286 58.2326 173.351 58.2942 173.392 58.3705C173.459 58.485 173.497 58.6111 173.544 58.7344C173.571 58.8019 173.609 58.8635 173.626 58.9339ZM169.008 90.3857V63.6115L159.139 69.2926L145.505 77.1424V103.917L169.01 90.3857H169.008ZM140.807 138.819V112.027L127.397 119.686L89.1017 141.542V168.587L140.807 138.819ZM32.701 47.6509V138.819L84.4007 168.584V141.545L57.3917 126.26L57.3829 126.254L57.3712 126.248C57.2802 126.195 57.2039 126.119 57.1188 126.054C57.0455 125.996 56.9604 125.949 56.8958 125.884L56.8899 125.875C56.8136 125.802 56.7608 125.711 56.6963 125.629C56.6376 125.55 56.5671 125.482 56.5202 125.4L56.5173 125.391C56.4644 125.303 56.4322 125.197 56.394 125.098C56.3559 125.01 56.306 124.927 56.2825 124.834C56.2532 124.722 56.2473 124.602 56.2355 124.487C56.2238 124.399 56.2003 124.311 56.2003 124.223V124.217V61.1817L42.5697 53.3291L32.701 47.6509ZM58.5538 30.0616L35.0574 43.5866L58.5479 57.1116L82.0414 43.5837L58.5479 30.0616H58.5538ZM70.773 114.469L84.4036 106.622V47.6509L74.535 53.332L60.9014 61.1817V120.153L70.773 114.469ZM143.158 46.0222L119.664 59.5472L143.158 73.0722L166.648 59.5443L143.158 46.0222ZM140.807 77.1424L127.174 69.2926L117.305 63.6115V90.3857L130.936 98.2325L140.807 103.917V77.1424ZM86.7483 137.478L121.208 117.805L138.433 107.975L114.957 94.4587L87.9279 110.02L63.293 124.203L86.7483 137.478Z"/>
</mask>
<path fill-rule="evenodd" clip-rule="evenodd" d="M173.626 58.9339C173.68 59.1339 173.708 59.3401 173.709 59.5472V91.7443C173.709 92.1576 173.6 92.5635 173.392 92.9211C173.185 93.2787 172.887 93.5753 172.529 93.7809L145.505 109.339V140.178C145.505 141.017 145.059 141.792 144.332 142.214L87.922 174.687C87.7929 174.761 87.6521 174.808 87.5112 174.858C87.4584 174.875 87.4085 174.907 87.3528 174.922C86.9584 175.026 86.5439 175.026 86.1496 174.922C86.0851 174.905 86.0264 174.869 85.9647 174.846C85.8356 174.799 85.7006 174.758 85.5774 174.687L29.1797 142.214C28.8214 142.009 28.5237 141.712 28.3166 141.354C28.1095 140.997 28.0003 140.591 28 140.178V43.5866C28 43.3753 28.0293 43.1699 28.0822 42.9704C28.0998 42.9029 28.1409 42.8413 28.1643 42.7738C28.2083 42.6505 28.2494 42.5243 28.314 42.4099C28.358 42.3336 28.4226 42.272 28.4754 42.2015C28.5429 42.1076 28.6045 42.0108 28.6837 41.9286C28.7512 41.8611 28.8393 41.8112 28.9156 41.7526C29.0007 41.6821 29.077 41.6058 29.1738 41.5501L57.3771 25.3136C57.7341 25.1081 58.1389 25 58.5509 25C58.9628 25 59.3676 25.1081 59.7246 25.3136L87.925 41.5501H87.9309C88.0248 41.6088 88.104 41.6821 88.1891 41.7496C88.2654 41.8083 88.3505 41.8611 88.418 41.9257C88.5001 42.0108 88.5588 42.1076 88.6293 42.2015C88.6791 42.272 88.7466 42.3336 88.7877 42.4099C88.8552 42.5273 88.8934 42.6505 88.9403 42.7738C88.9638 42.8413 89.0049 42.9029 89.0225 42.9733C89.0765 43.1733 89.1041 43.3795 89.1046 43.5866V103.917L112.604 90.3857V59.5443C112.604 59.3389 112.633 59.1305 112.686 58.9339C112.707 58.8635 112.745 58.8019 112.768 58.7344C112.815 58.6111 112.856 58.485 112.921 58.3705C112.965 58.2942 113.029 58.2326 113.079 58.1622C113.15 58.0683 113.208 57.9714 113.291 57.8893C113.358 57.8218 113.443 57.7719 113.52 57.7132C113.608 57.6428 113.684 57.5665 113.778 57.5107L141.984 41.2742C142.341 41.0685 142.746 40.9602 143.158 40.9602C143.57 40.9602 143.975 41.0685 144.332 41.2742L172.532 57.5107C172.632 57.5694 172.708 57.6428 172.796 57.7103C172.869 57.7689 172.954 57.8218 173.022 57.8863C173.104 57.9714 173.163 58.0683 173.233 58.1622C173.286 58.2326 173.351 58.2942 173.392 58.3705C173.459 58.485 173.497 58.6111 173.544 58.7344C173.571 58.8019 173.609 58.8635 173.626 58.9339ZM169.008 90.3857V63.6115L159.139 69.2926L145.505 77.1424V103.917L169.01 90.3857H169.008ZM140.807 138.819V112.027L127.397 119.686L89.1017 141.542V168.587L140.807 138.819ZM32.701 47.6509V138.819L84.4007 168.584V141.545L57.3917 126.26L57.3829 126.254L57.3712 126.248C57.2802 126.195 57.2039 126.119 57.1188 126.054C57.0455 125.996 56.9604 125.949 56.8958 125.884L56.8899 125.875C56.8136 125.802 56.7608 125.711 56.6963 125.629C56.6376 125.55 56.5671 125.482 56.5202 125.4L56.5173 125.391C56.4644 125.303 56.4322 125.197 56.394 125.098C56.3559 125.01 56.306 124.927 56.2825 124.834C56.2532 124.722 56.2473 124.602 56.2355 124.487C56.2238 124.399 56.2003 124.311 56.2003 124.223V124.217V61.1817L42.5697 53.3291L32.701 47.6509ZM58.5538 30.0616L35.0574 43.5866L58.5479 57.1116L82.0414 43.5837L58.5479 30.0616H58.5538ZM70.773 114.469L84.4036 106.622V47.6509L74.535 53.332L60.9014 61.1817V120.153L70.773 114.469ZM143.158 46.0222L119.664 59.5472L143.158 73.0722L166.648 59.5443L143.158 46.0222ZM140.807 77.1424L127.174 69.2926L117.305 63.6115V90.3857L130.936 98.2325L140.807 103.917V77.1424ZM86.7483 137.478L121.208 117.805L138.433 107.975L114.957 94.4587L87.9279 110.02L63.293 124.203L86.7483 137.478Z" fill="#3C3C3C"/>
<path fill-rule="evenodd" clip-rule="evenodd" d="M173.626 58.9339C173.68 59.1339 173.708 59.3401 173.709 59.5472V91.7443C173.709 92.1576 173.6 92.5635 173.392 92.9211C173.185 93.2787 172.887 93.5753 172.529 93.7809L145.505 109.339V140.178C145.505 141.017 145.059 141.792 144.332 142.214L87.922 174.687C87.7929 174.761 87.6521 174.808 87.5112 174.858C87.4584 174.875 87.4085 174.907 87.3528 174.922C86.9584 175.026 86.5439 175.026 86.1496 174.922C86.0851 174.905 86.0264 174.869 85.9647 174.846C85.8356 174.799 85.7006 174.758 85.5774 174.687L29.1797 142.214C28.8214 142.009 28.5237 141.712 28.3166 141.354C28.1095 140.997 28.0003 140.591 28 140.178V43.5866C28 43.3753 28.0293 43.1699 28.0822 42.9704C28.0998 42.9029 28.1409 42.8413 28.1643 42.7738C28.2083 42.6505 28.2494 42.5243 28.314 42.4099C28.358 42.3336 28.4226 42.272 28.4754 42.2015C28.5429 42.1076 28.6045 42.0108 28.6837 41.9286C28.7512 41.8611 28.8393 41.8112 28.9156 41.7526C29.0007 41.6821 29.077 41.6058 29.1738 41.5501L57.3771 25.3136C57.7341 25.1081 58.1389 25 58.5509 25C58.9628 25 59.3676 25.1081 59.7246 25.3136L87.925 41.5501H87.9309C88.0248 41.6088 88.104 41.6821 88.1891 41.7496C88.2654 41.8083 88.3505 41.8611 88.418 41.9257C88.5001 42.0108 88.5588 42.1076 88.6293 42.2015C88.6791 42.272 88.7466 42.3336 88.7877 42.4099C88.8552 42.5273 88.8934 42.6505 88.9403 42.7738C88.9638 42.8413 89.0049 42.9029 89.0225 42.9733C89.0765 43.1733 89.1041 43.3795 89.1046 43.5866V103.917L112.604 90.3857V59.5443C112.604 59.3389 112.633 59.1305 112.686 58.9339C112.707 58.8635 112.745 58.8019 112.768 58.7344C112.815 58.6111 112.856 58.485 112.921 58.3705C112.965 58.2942 113.029 58.2326 113.079 58.1622C113.15 58.0683 113.208 57.9714 113.291 57.8893C113.358 57.8218 113.443 57.7719 113.52 57.7132C113.608 57.6428 113.684 57.5665 113.778 57.5107L141.984 41.2742C142.341 41.0685 142.746 40.9602 143.158 40.9602C143.57 40.9602 143.975 41.0685 144.332 41.2742L172.532 57.5107C172.632 57.5694 172.708 57.6428 172.796 57.7103C172.869 57.7689 172.954 57.8218 173.022 57.8863C173.104 57.9714 173.163 58.0683 173.233 58.1622C173.286 58.2326 173.351 58.2942 173.392 58.3705C173.459 58.485 173.497 58.6111 173.544 58.7344C173.571 58.8019 173.609 58.8635 173.626 58.9339ZM169.008 90.3857V63.6115L159.139 69.2926L145.505 77.1424V103.917L169.01 90.3857H169.008ZM140.807 138.819V112.027L127.397 119.686L89.1017 141.542V168.587L140.807 138.819ZM32.701 47.6509V138.819L84.4007 168.584V141.545L57.3917 126.26L57.3829 126.254L57.3712 126.248C57.2802 126.195 57.2039 126.119 57.1188 126.054C57.0455 125.996 56.9604 125.949 56.8958 125.884L56.8899 125.875C56.8136 125.802 56.7608 125.711 56.6963 125.629C56.6376 125.55 56.5671 125.482 56.5202 125.4L56.5173 125.391C56.4644 125.303 56.4322 125.197 56.394 125.098C56.3559 125.01 56.306 124.927 56.2825 124.834C56.2532 124.722 56.2473 124.602 56.2355 124.487C56.2238 124.399 56.2003 124.311 56.2003 124.223V124.217V61.1817L42.5697 53.3291L32.701 47.6509ZM58.5538 30.0616L35.0574 43.5866L58.5479 57.1116L82.0414 43.5837L58.5479 30.0616H58.5538ZM70.773 114.469L84.4036 106.622V47.6509L74.535 53.332L60.9014 61.1817V120.153L70.773 114.469ZM143.158 46.0222L119.664 59.5472L143.158 73.0722L166.648 59.5443L143.158 46.0222ZM140.807 77.1424L127.174 69.2926L117.305 63.6115V90.3857L130.936 98.2325L140.807 103.917V77.1424ZM86.7483 137.478L121.208 117.805L138.433 107.975L114.957 94.4587L87.9279 110.02L63.293 124.203L86.7483 137.478Z" stroke="#3C3C3C" stroke-width="2" mask="url(#path-1-outside-1_2687_9071)"/>
</svg>
