<svg width="280" height="280" viewBox="0 0 280 280" fill="none" xmlns="http://www.w3.org/2000/svg">
<path d="M112.339 105.259L169.258 90.0808C171.001 89.5634 172.852 89.5317 174.612 89.9893C176.372 90.4468 177.973 91.3762 179.244 92.6771L220.884 134.318C222.185 135.588 223.114 137.189 223.572 138.949C224.029 140.709 223.998 142.56 223.48 144.303L208.202 201.222C207.751 202.924 206.857 204.476 205.612 205.721C204.367 206.966 202.814 207.86 201.112 208.312L144.194 223.59C142.451 224.107 140.599 224.139 138.84 223.681C137.08 223.224 135.478 222.295 134.208 220.994L92.6673 178.954C91.3664 177.683 90.4371 176.082 89.9795 174.322C89.522 172.562 89.5536 170.711 90.071 168.968L105.249 112.049C105.787 110.425 106.715 108.957 107.95 107.773C109.186 106.59 110.693 105.726 112.339 105.259Z" fill="#EEF8EB"/>
<path d="M232.264 80.9798C233.262 79.9882 234.039 78.7969 234.544 77.484C235.049 76.1712 235.272 74.7663 235.196 73.3616C235.121 71.9568 234.749 70.5839 234.106 69.3327C233.463 68.0814 232.563 66.9802 231.465 66.1011C208.947 47.4073 180.26 37.7956 151.024 39.1492C121.789 40.5028 94.1132 52.7241 73.4186 73.4186C52.7241 94.1132 40.5028 121.789 39.1492 151.024C37.7956 180.26 47.4073 208.947 66.1011 231.465C66.9802 232.563 68.0814 233.463 69.3327 234.106C70.5839 234.749 71.9568 235.121 73.3616 235.196C74.7663 235.272 76.1712 235.049 77.484 234.544C78.7969 234.039 79.9882 233.262 80.9798 232.264L232.264 80.9798Z" fill="#ABDB9A"/>
</svg>
