<svg width="280" height="280" viewBox="0 0 280 280" fill="none" xmlns="http://www.w3.org/2000/svg">
<path d="M40 183.441V111.644C40.0304 109.944 40.4938 108.281 41.3463 106.811C42.1989 105.341 43.4126 104.113 44.8724 103.243C46.3322 102.374 47.99 101.891 49.6886 101.84C51.3872 101.79 53.0704 102.174 54.5792 102.956L125.378 139.604C126.991 140.439 128.346 141.699 129.296 143.248C130.246 144.796 130.756 146.574 130.77 148.391V219.889C130.809 221.622 130.396 223.335 129.571 224.86C128.747 226.384 127.54 227.668 126.069 228.585C124.598 229.502 122.914 230.02 121.182 230.089C119.45 230.157 117.73 229.774 116.191 228.976L45.3923 192.228C43.7791 191.393 42.4245 190.133 41.4743 188.584C40.5241 187.036 40.0143 185.258 40 183.441Z" fill="#EEF8EB"/>
<path d="M148.944 219.889V148.391C149.029 146.643 149.572 144.948 150.519 143.476C151.465 142.004 152.782 140.806 154.337 140.003L225.135 102.956C226.644 102.174 228.328 101.79 230.026 101.84C231.725 101.891 233.382 102.374 234.842 103.243C236.302 104.113 237.516 105.341 238.368 106.811C239.221 108.281 239.684 109.944 239.715 111.644V183.141C239.7 184.958 239.191 186.736 238.24 188.285C237.29 189.833 235.936 191.093 234.322 191.929L163.524 228.676C162.007 229.462 160.315 229.846 158.608 229.791C156.902 229.736 155.237 229.244 153.775 228.362C152.312 227.481 151.1 226.239 150.255 224.756C149.409 223.272 148.958 221.596 148.944 219.889Z" fill="#EEF8EB"/>
<path d="M144.654 41.3426L214.554 77.5908C216.113 78.3555 217.427 79.5422 218.346 81.0161C219.265 82.49 219.752 84.192 219.752 85.9289C219.752 87.6657 219.265 89.3677 218.346 90.8416C217.427 92.3155 216.113 93.5022 214.554 94.267L144.654 130.515C143.113 131.32 141.4 131.741 139.661 131.741C137.922 131.741 136.209 131.32 134.668 130.515L64.7681 94.267C63.2087 93.5022 61.895 92.3155 60.9762 90.8416C60.0574 89.3677 59.5703 87.6657 59.5703 85.9289C59.5703 84.192 60.0574 82.49 60.9762 81.0161C61.895 79.5422 63.2087 78.3555 64.7681 77.5908L134.668 41.3426C136.209 40.5376 137.922 40.1172 139.661 40.1172C141.4 40.1172 143.113 40.5376 144.654 41.3426Z" fill="#ABDB9A"/>
</svg>
