<svg width="280" height="280" viewBox="0 0 280 280" fill="none" xmlns="http://www.w3.org/2000/svg">
<path d="M140.195 40.1953C120.417 40.1953 101.083 46.0602 84.6383 57.0483C68.1934 68.0365 55.3762 83.6544 47.8074 101.927C40.2386 120.2 38.2583 140.306 42.1168 159.704C45.9754 179.102 55.4994 196.921 69.4847 210.906C83.4699 224.891 101.288 234.415 120.686 238.274C140.084 242.132 160.191 240.152 178.464 232.583C196.736 225.015 212.354 212.197 223.342 195.752C234.33 179.307 240.195 159.973 240.195 140.195C240.195 127.063 237.609 114.06 232.583 101.927C227.558 89.7944 220.192 78.7705 210.906 69.4846C201.62 60.1988 190.596 52.8328 178.464 47.8074C166.331 42.7819 153.328 40.1953 140.195 40.1953ZM140.195 150.195C138.218 150.195 136.284 149.609 134.64 148.51C132.995 147.411 131.713 145.849 130.957 144.022C130.2 142.195 130.002 140.184 130.388 138.244C130.773 136.305 131.726 134.523 133.124 133.124C134.523 131.726 136.305 130.773 138.244 130.387C140.184 130.002 142.195 130.2 144.022 130.957C145.849 131.713 147.411 132.995 148.51 134.64C149.609 136.284 150.195 138.217 150.195 140.195C150.195 142.847 149.142 145.391 147.266 147.266C145.391 149.142 142.848 150.195 140.195 150.195Z" fill="#ABDB9A"/>
<path d="M190.204 200.194C188.888 200.202 187.584 199.949 186.365 199.452C185.147 198.954 184.039 198.221 183.104 197.294L169.004 183.094C167.366 181.181 166.51 178.72 166.607 176.203C166.705 173.687 167.748 171.299 169.529 169.518C171.31 167.737 173.697 166.694 176.214 166.597C178.731 166.5 181.191 167.356 183.104 168.994L197.304 183.094C198.242 184.024 198.986 185.13 199.493 186.348C200.001 187.567 200.262 188.874 200.262 190.194C200.262 191.514 200.001 192.821 199.493 194.04C198.986 195.258 198.242 196.364 197.304 197.294C196.37 198.221 195.262 198.954 194.044 199.452C192.825 199.949 191.521 200.202 190.204 200.194ZM97.3045 197.294L111.404 183.094C113.043 181.181 113.899 178.72 113.802 176.203C113.704 173.687 112.661 171.299 110.88 169.518C109.099 167.737 106.712 166.694 104.195 166.597C101.678 166.5 99.2175 167.356 97.3045 168.994L83.1045 183.094C82.1672 184.024 81.4232 185.13 80.9156 186.348C80.4079 187.567 80.1465 188.874 80.1465 190.194C80.1465 191.514 80.4079 192.821 80.9156 194.04C81.4232 195.258 82.1672 196.364 83.1045 197.294C84.0341 198.231 85.1401 198.975 86.3587 199.483C87.5773 199.991 88.8843 200.252 90.2045 200.252C91.5246 200.252 92.8316 199.991 94.0502 199.483C95.2688 198.975 96.3748 198.231 97.3045 197.294ZM160.204 139.094C160.37 141.885 159.948 144.68 158.966 147.298C157.984 149.916 156.464 152.3 154.504 154.294C152.387 156.409 149.822 158.022 146.998 159.014C144.175 160.006 141.164 160.351 138.189 160.025C135.214 159.699 132.351 158.709 129.809 157.129C127.268 155.548 125.113 153.418 123.504 150.894C121.518 147.775 120.435 144.167 120.376 140.47C120.317 136.772 121.284 133.131 123.169 129.95C125.055 126.77 127.785 124.174 131.058 122.452C134.33 120.729 138.015 119.948 141.704 120.194C143.042 120.251 144.376 120.022 145.618 119.522C146.859 119.022 147.98 118.262 148.904 117.294L178.904 87.2939C179.834 86.3566 180.94 85.6127 182.159 85.105C183.377 84.5973 184.684 84.3359 186.004 84.3359C187.325 84.3359 188.632 84.5973 189.85 85.105C191.069 85.6127 192.175 86.3566 193.104 87.2939C194.042 88.2236 194.786 89.3296 195.293 90.5482C195.801 91.7667 196.062 93.0738 196.062 94.3939C196.062 95.714 195.801 97.0211 195.293 98.2397C194.786 99.4583 194.042 100.564 193.104 101.494L163.104 131.494C162.116 132.487 161.346 133.676 160.847 134.986C160.347 136.295 160.128 137.695 160.204 139.094ZM147.404 147.194C148.809 145.798 149.767 144.016 150.158 142.075C150.549 140.133 150.354 138.119 149.599 136.289C148.844 134.458 147.562 132.893 145.916 131.791C144.271 130.69 142.335 130.102 140.354 130.102C138.374 130.102 136.438 130.69 134.793 131.791C133.147 132.893 131.865 134.458 131.11 136.289C130.355 138.119 130.16 140.133 130.551 142.075C130.942 144.016 131.9 145.798 133.304 147.194C135.174 149.026 137.687 150.052 140.304 150.052C142.922 150.052 145.435 149.026 147.304 147.194H147.404Z" fill="#EEF8EB"/>
</svg>
