<svg width="280" height="280" viewBox="0 0 280 280" fill="none" xmlns="http://www.w3.org/2000/svg">
<path d="M119.995 240.001H39.995C38.4468 240.002 36.9194 239.644 35.5333 238.955C34.1472 238.265 32.9402 237.263 32.0075 236.027C31.0748 234.792 30.442 233.356 30.1588 231.834C29.8757 230.312 29.95 228.745 30.3759 227.257L50.3793 162.598L36.2353 139.688C32.4977 135.929 30.3924 130.848 30.3759 125.547L29.995 70.0007C29.9944 68.2152 30.472 66.4621 31.3782 64.9236C32.2844 63.3851 33.5861 62.1174 35.148 61.2522C36.7098 60.387 38.475 59.9558 40.2598 60.0036C42.0447 60.0513 43.7843 60.5762 45.2977 61.5237L120.6 108.584C123.483 110.376 125.859 112.875 127.503 115.844C129.148 118.813 130.005 122.153 129.995 125.547V230.001C129.996 231.314 129.738 232.615 129.235 233.828C128.733 235.042 127.996 236.145 127.068 237.073C126.139 238.002 125.036 238.739 123.823 239.241C122.609 239.743 121.308 240.001 119.995 240.001Z" fill="#ABDB9A"/>
<path d="M240 240H100C98.6866 240.001 97.3859 239.743 96.1723 239.24C94.9587 238.738 93.856 238.001 92.9273 237.073C91.9985 236.144 91.262 235.041 90.7597 233.828C90.2574 232.614 89.9993 231.313 90 230V160C89.9992 158.687 90.2574 157.386 90.7597 156.172C91.2619 154.959 91.9985 153.856 92.9272 152.927C93.856 151.998 94.9587 151.262 96.1723 150.76C97.3859 150.257 98.6866 149.999 100 150H160.869L170.039 49.0918C170.266 46.6068 171.413 44.2963 173.256 42.6141C175.099 40.9318 177.505 39.9994 180 40H200C202.495 39.9994 204.901 40.9318 206.744 42.6141C208.587 44.2963 209.734 46.6068 209.961 49.0918L219.131 150H240C241.313 149.999 242.614 150.257 243.828 150.76C245.041 151.262 246.144 151.998 247.073 152.927C248.002 153.856 248.738 154.959 249.24 156.172C249.743 157.386 250.001 158.687 250 160V230C250.001 231.313 249.743 232.614 249.24 233.828C248.738 235.041 248.001 236.144 247.073 237.073C246.144 238.001 245.041 238.738 243.828 239.24C242.614 239.743 241.313 240.001 240 240Z" fill="#EEF8EB"/>
</svg>
