<svg width="280" height="280" viewBox="0 0 280 280" fill="none" xmlns="http://www.w3.org/2000/svg">
<path d="M124.651 30C124.012 30.0056 123.397 30.248 122.927 30.6805C122.456 31.1129 122.163 31.7046 122.104 32.3409C113.618 113.887 65.4688 130.622 65.4688 179.737C65.4844 198.367 72.892 216.229 86.0653 229.402C99.2386 242.576 117.101 249.983 135.731 249.999C213.234 249.999 237.473 176.702 190.858 106.433C171.604 79.3765 150.03 54.0489 126.379 30.7373C126.156 30.5046 125.887 30.3194 125.59 30.1927C125.293 30.066 124.974 30.0005 124.651 30Z" fill="#ABDB9A"/>
<path d="M128.607 116.074C128.32 116.085 128.038 116.155 127.779 116.28C127.521 116.406 127.291 116.583 127.104 116.802C126.918 117.02 126.779 117.275 126.696 117.55C126.613 117.825 126.587 118.114 126.622 118.4C132.48 174.26 89.5689 182.151 98.6762 218.747C101.36 227.388 106.611 235.006 113.73 240.588C120.849 246.171 129.5 249.454 138.531 249.999H138.543C181.743 249.982 192.906 192.467 173.179 154.374C173.024 154.063 172.785 153.803 172.488 153.622C172.192 153.441 171.85 153.347 171.503 153.352C171.021 153.345 170.554 153.515 170.188 153.828C169.821 154.141 169.582 154.577 169.514 155.054C168.096 164.535 163.788 173.347 157.177 180.289C157.997 151.188 141.563 123.642 129.582 116.355C129.289 116.173 128.952 116.076 128.607 116.074Z" fill="#EEF8EB"/>
</svg>
