<?xml version="1.0" encoding="utf-8"?><svg viewBox="0 0 107 32" xmlns="http://www.w3.org/2000/svg" xmlns:xlink="http://www.w3.org/1999/xlink"><style>:root>svg{display:none}:root>svg:target{display:block}</style><svg fill="none" viewBox="0 0 33 32" id="btn_arr" xmlns="http://www.w3.org/2000/svg"><path d="M27.803 8 12.5 23.303M27.803 8v13.346m0-13.346H14.482" stroke="#FD8B93" stroke-width="2" stroke-linejoin="round"/></svg><svg fill="none" viewBox="0 0 18 18" id="btn_arrow" xmlns="http://www.w3.org/2000/svg"><path d="M16.803 1 1.5 16.303M16.803 1v13.346m0-13.346H3.482" stroke="#FD8B93" stroke-width="2" stroke-linejoin="round"/></svg><svg fill="none" viewBox="0 0 107 18" id="logo" xmlns="http://www.w3.org/2000/svg"><path fill-rule="evenodd" clip-rule="evenodd" d="M81.861 1.113a8.361 8.361 0 0 1 3.39 3.111 9.444 9.444 0 0 1 0 9.276 8.306 8.306 0 0 1-3.39 3.111 12.05 12.05 0 0 1-10.127 0 8.306 8.306 0 0 1-3.39-3.111 9.443 9.443 0 0 1 0-9.276 8.36 8.36 0 0 1 3.39-3.111 12.081 12.081 0 0 1 10.127 0Zm.072 10.642v-.01a6.147 6.147 0 0 0 0-5.744 4.862 4.862 0 0 0-2.027-1.895 7.538 7.538 0 0 0-6.223 0 4.791 4.791 0 0 0-2.026 1.895 6.236 6.236 0 0 0 0 5.754 4.725 4.725 0 0 0 2.026 1.893 7.673 7.673 0 0 0 6.223 0 4.819 4.819 0 0 0 2.027-1.893ZM38.913 1.124a12.151 12.151 0 0 0-10.149 0 8.302 8.302 0 0 0-3.377 3.111 8.299 8.299 0 0 0-1.048 2.843h-2.641V.357h-3.802v17.047h3.802v-6.931h2.609a8.18 8.18 0 0 0 1.47 3.636 8.088 8.088 0 0 0 2.987 2.52 12.087 12.087 0 0 0 10.149 0 8.354 8.354 0 0 0 3.392-3.112 9.463 9.463 0 0 0 0-9.278 8.368 8.368 0 0 0-3.392-3.115Zm.07 10.627a4.788 4.788 0 0 1-2.026 1.893 7.673 7.673 0 0 1-6.223 0 4.72 4.72 0 0 1-2.044-1.9 6.237 6.237 0 0 1 0-5.753 4.768 4.768 0 0 1 2.027-1.893 7.538 7.538 0 0 1 6.223 0 4.851 4.851 0 0 1 2.026 1.893 6.135 6.135 0 0 1 0 5.745l.017.015ZM10.26.344H5.384L0 17.39h4.046l3.772-14.07 3.772 14.07h4.046L10.261.344Zm45.05 6.029L59.05.339l5.823-.004v17.047h-3.62V3.805l-4.384 7.548h-3.12l-4.383-7.548v13.577h-3.62V.335h5.835l3.732 6.038Zm47.568 6.154v.034a4.767 4.767 0 0 1-1.899 1.338 7.279 7.279 0 0 1-2.705.475 6.53 6.53 0 0 1-3.052-.668 4.704 4.704 0 0 1-1.979-1.893 6.493 6.493 0 0 1 0-5.84 4.689 4.689 0 0 1 1.979-1.893c.948-.47 1.996-.7 3.052-.672.923-.02 1.842.14 2.705.472.433.177.841.413 1.212.7l4.023-1.03-.037-.058a8.316 8.316 0 0 0-3.26-2.542 11.153 11.153 0 0 0-4.615-.91c-1.739-.039-3.46.343-5.022 1.114a8.293 8.293 0 0 0-3.363 3.1 9.553 9.553 0 0 0 0 9.295 8.255 8.255 0 0 0 3.363 3.103 10.783 10.783 0 0 0 5.022 1.117 11.186 11.186 0 0 0 4.615-.909 8.255 8.255 0 0 0 3.26-2.557c.19-.275.363-.562.518-.859l-3.817-.918Z" fill="#1E1E1E"/></svg><svg fill="none" viewBox="0 0 21 21" id="x" xmlns="http://www.w3.org/2000/svg"><path d="m19.192.992-9.071 9.072M1.05 19.135l9.071-9.071m0 0 9.192 9.192m-9.192-9.192L.929.87" stroke="#1E1E1E" stroke-width="2.229" stroke-linejoin="round"/></svg></svg>